#!OML:ASF I:\Actors\actors\Patient Classification 2\Patient 1\Session 1\actor1.ASF
:FULLY-SPECIFIED
:DEGREES
383
root -0.676828 18.7947 5.50759 5.28043 6.03483 -0.754122
lowerback 6.73688 4.17544 5.07859
upperback 1.70311 5.95114 2.3795
thorax -1.73985 2.95141 -0.845048
lowerneck -8.97122 -8.86693 -8.51935
upperneck 17.2242 -11.724 5.29451
head 7.59672 -5.69764 1.96405
rclavicle 5.9039e-014 -4.77083e-015
rhumerus 19.9179 7.48532 -60.6805
rradius 60.4118
rwrist -28.5982
rhand -9.85773 -60.2738
rfingers 7.12502
rthumb 16.1206 270.377
lclavicle 5.9039e-014 -4.77083e-015
lhumerus -30.3815 -33.9715 104.529
lradius 105.736
lwrist 74.5694
lhand -16.0398 -12.6113
lfingers 7.12502
lthumb 10.1617 17.1233
rfemur 0 0 0
rtibia 0
rfoot 0 0
rtoes 0
lfemur -11.1186 -8.28937 -12.4689
ltibia 22.1981
lfoot -19.6617 11.8887
ltoes -55.5421
384
root -0.680962 18.7926 5.51564 5.22895 6.01861 -0.793352
lowerback 6.6718 4.0783 4.91284
upperback 1.62076 5.81117 2.37573
thorax -1.81201 2.87976 -0.747986
lowerneck -9.05487 -8.76772 -8.64627
upperneck 17.3905 -11.5752 5.32354
head 7.66512 -5.62995 2.00396
rclavicle 8.07066e-014 9.54166e-015
rhumerus 18.041 8.69719 -60.4207
rradius 63.3067
rwrist -27.1817
rhand -9.88723 -59.0893
rfingers 7.12502
rthumb 16.0922 271.559
lclavicle 8.07066e-014 9.54166e-015
lhumerus -30.5297 -33.6702 104.554
lradius 105.735
lwrist 74.5468
lhand -16.1394 -12.8198
lfingers 7.12502
lthumb 10.0657 16.9195
rfemur 0 0 0
rtibia 0
rfoot 0 0
rtoes 0
lfemur -11.0365 -8.22168 -12.4159
ltibia 22.191
lfoot -19.6824 11.837
ltoes -55.6077
385
root -0.685007 18.79 5.52301 5.07301 6.01723 -0.838535
lowerback 6.71687 3.98953 4.77891
upperback 1.55653 5.69065 2.36463
thorax -1.92108 2.81713 -0.684814
lowerneck -9.07023 -8.6534 -8.68185
upperneck 17.4801 -11.4095 5.2899
head 7.68519 -5.55599 2.01601
rclavicle 1.78906e-015 -1.74931e-014
rhumerus 16.2834 10.0033 -60.0842
rradius 65.9795
rwrist -26.4633
rhand -10.4563 -57.6084
rfingers 7.12502
rthumb 15.5442 272.996
lclavicle 1.78906e-015 -1.74931e-014
lhumerus -30.6483 -33.4225 104.59
lradius 105.686
lwrist 74.5185
lhand -16.0758 -12.903
lfingers 7.12502
lthumb 10.127 16.8333
rfemur 0 0 0
rtibia 0
rfoot 0 0
rtoes 0
lfemur -10.8253 -8.24587 -12.3723
ltibia 22.1773
lfoot -19.743 11.8019
ltoes -55.5326
386
root -0.686426 18.7883 5.53253 4.99927 5.92798 -0.855273
lowerback 6.61878 3.92008 4.62378
upperback 1.49351 5.58416 2.33384
thorax -1.94821 2.7637 -0.619376
lowerneck -9.05972 -8.5333 -8.63225
upperneck 17.4809 -11.2278 5.155
head 7.65904 -5.479 1.98639
rclavicle -1.0138e-014 -2.22639e-014
rhumerus 14.8449 11.843 -59.2018
rradius 68.573
rwrist -26.5237
rhand -11.1825 -56.2832
rfingers 7.12502
rthumb 14.8447 274.269
lclavicle -1.0138e-014 -2.22639e-014
lhumerus -30.8394 -33.1935 104.569
lradius 105.7
lwrist 74.5013
lhand -15.9819 -12.9443
lfingers 7.12502
lthumb 10.2176 16.7875
rfemur 0 0 0
rtibia 0
rfoot 0 0
rtoes 0
lfemur -10.6718 -8.32839 -12.3788
ltibia 22.1621
lfoot -19.8304 11.9495
ltoes -55.551
387
root -0.684468 18.7865 5.54662 5.01325 5.69314 -0.879391
lowerback 6.35495 3.88584 4.49733
upperback 1.42097 5.51579 2.27614
thorax -1.88557 2.73104 -0.587319
lowerneck -9.03706 -8.38998 -8.60179
upperneck 17.5065 -11.0296 5.10449
head 7.64402 -5.38824 1.98893
rclavicle -5.725e-014 0
rhumerus 13.7391 13.9426 -58.1407
rradius 70.947
rwrist -26.9212
rhand -12.0999 -55.2944
rfingers 7.12502
rthumb 13.9607 275.194
lclavicle -5.725e-014 0
lhumerus -31.0814 -32.9667 104.484
lradius 105.791
lwrist 74.5069
lhand -16.0079 -12.9134
lfingers 7.12502
lthumb 10.1925 16.8197
rfemur 0 0 0
rtibia 0
rfoot 0 0
rtoes 0
lfemur -10.5687 -8.39115 -12.3928
ltibia 22.143
lfoot -20.0144 12.1903
ltoes -55.5672
388
root -0.684301 18.784 5.56173 5.01292 5.42535 -0.926723
lowerback 6.09921 3.86762 4.38683
upperback 1.33904 5.47115 2.2119
thorax -1.83375 2.70973 -0.573552
lowerneck -8.99466 -8.24167 -8.50851
upperneck 17.5422 -10.8375 5.05737
head 7.62576 -5.29637 1.98276
rclavicle -3.37934e-014 -3.97569e-015
rhumerus 12.3544 15.5602 -57.8415
rradius 73.3678
rwrist -26.6554
rhand -12.8887 -54.5165
rfingers 7.12502
rthumb 13.2005 275.921
lclavicle -3.37934e-014 -3.97569e-015
lhumerus -31.2581 -32.6961 104.407
lradius 105.87
lwrist 74.4889
lhand -16.1082 -12.7651
lfingers 7.12502
lthumb 10.0957 16.9727
rfemur 0 0 0
rtibia 0
rfoot 0 0
rtoes 0
lfemur -10.4354 -8.42575 -12.3725
ltibia 22.121
lfoot -20.228 12.3983
ltoes -55.5056
389
root -0.687846 18.7822 5.57498 5.01457 5.20461 -0.933247
lowerback 5.85537 3.82904 4.20999
upperback 1.26712 5.3964 2.14689
thorax -1.78526 2.67379 -0.523027
lowerneck -9.0342 -8.11267 -8.41166
upperneck 17.6094 -10.6625 4.98363
head 7.63224 -5.21286 1.96149
rclavicle 6.71892e-014 -1.59028e-015
rhumerus 10.4345 16.5786 -58.5084
rradius 75.9926
rwrist -25.4413
rhand -13.0708 -53.7852
rfingers 7.12502
rthumb 13.0249 276.641
lclavicle 6.71892e-014 -1.59028e-015
lhumerus -31.3474 -32.3791 104.309
lradius 105.883
lwrist 74.4205
lhand -16.2015 -12.6396
lfingers 7.12502
lthumb 10.0057 17.1025
rfemur 0 0 0
rtibia 0
rfoot 0 0
rtoes 0
lfemur -10.3083 -8.49179 -12.3752
ltibia 22.0908
lfoot -20.3924 12.6028
ltoes -55.4523
390
root -0.689456 18.7802 5.58688 5.01049 5.00586 -0.949001
lowerback 5.63552 3.77724 4.0781
upperback 1.18858 5.30895 2.07212
thorax -1.75198 2.63087 -0.508652
lowerneck -9.18147 -8.00138 -8.48631
upperneck 17.8193 -10.5246 5.1279
head 7.72969 -5.1363 2.02728
rclavicle 3.20043e-014 -1.11319e-014
rhumerus 7.86044 17.052 -60.0194
rradius 78.8532
rwrist -23.505
rhand -12.696 -53.0413
rfingers 7.12502
rthumb 13.3862 277.409
lclavicle 3.20043e-014 -1.11319e-014
lhumerus -31.5103 -32.113 104.181
lradius 105.898
lwrist 74.4228
lhand -16.3107 -12.6344
lfingers 7.12502
lthumb 9.90042 17.1128
rfemur 0 0 0
rtibia 0
rfoot 0 0
rtoes 0
lfemur -10.1834 -8.53606 -12.3694
ltibia 22.0486
lfoot -20.5051 12.7661
ltoes -55.4729
391
root -0.688317 18.7767 5.59836 4.9861 4.77411 -0.992753
lowerback 5.45298 3.73465 4.02
upperback 1.08504 5.24097 1.97163
thorax -1.75527 2.59621 -0.566285
lowerneck -9.3114 -7.87323 -8.52605
upperneck 18.0752 -10.3839 5.32665
head 7.83981 -5.05146 2.10677
rclavicle 4.1546e-014 -1.98785e-014
rhumerus 6.63198 18.9484 -59.6441
rradius 80.9372
rwrist -23.7262
rhand -13.0251 -52.8654
rfingers 7.12502
rthumb 13.069 277.564
lclavicle 4.1546e-014 -1.98785e-014
lhumerus -31.7419 -31.8507 104.079
lradius 105.913
lwrist 74.4883
lhand -16.4259 -12.7106
lfingers 7.12502
lthumb 9.78922 17.0419
rfemur 0 0 0
rtibia 0
rfoot 0 0
rtoes 0
lfemur -10.028 -8.50839 -12.347
ltibia 21.9923
lfoot -20.633 12.8704
ltoes -55.373
392
root -0.686994 18.7743 5.60961 5.01073 4.53183 -1.00061
lowerback 5.19993 3.70209 3.92584
upperback 0.934885 5.18255 1.86646
thorax -1.76972 2.56591 -0.606528
lowerneck -9.23026 -7.74294 -8.46175
upperneck 18.2213 -10.2331 5.34394
head 7.85946 -4.9757 2.1217
rclavicle -1.24439e-013 -7.15625e-015
rhumerus 4.45097 19.822 -60.7569
rradius 83.1831
rwrist -22.7252
rhand -12.6932 -52.4894
rfingers 7.12502
rthumb 13.3889 277.961
lclavicle -1.24439e-013 -7.15625e-015
lhumerus -32.0043 -31.5357 104.071
lradius 105.851
lwrist 74.4653
lhand -16.4282 -12.8671
lfingers 7.12502
lthumb 9.78709 16.8854
rfemur 0 0 0
rtibia 0
rfoot 0 0
rtoes 0
lfemur -9.90518 -8.49904 -12.3609
ltibia 21.9207
lfoot -20.7997 12.9717
ltoes -55.0871
393
root -0.684102 18.7723 5.62011 5.05791 4.30785 -0.950691
lowerback 4.90499 3.67371 3.75128
upperback 0.75831 5.12524 1.7779
thorax -1.79642 2.53635 -0.584067
lowerneck -8.93989 -7.62822 -8.43498
upperneck 18.2277 -10.1076 5.36504
head 7.7998 -4.91912 2.14989
rclavicle -3.51849e-014 6.36111e-015
rhumerus 2.17079 20.9618 -61.8904
rradius 85.3756
rwrist -21.8504
rhand -12.5595 -51.9695
rfingers 7.12502
rthumb 13.5177 278.489
lclavicle -3.51849e-014 6.36111e-015
lhumerus -32.3113 -31.2193 104.134
lradius 105.782
lwrist 74.3805
lhand -16.4727 -12.8705
lfingers 7.12502
lthumb 9.7441 16.884
rfemur 0 0 0
rtibia 0
rfoot 0 0
rtoes 0
lfemur -9.79659 -8.51685 -12.446
ltibia 21.8294
lfoot -20.9458 13.1014
ltoes -54.8974
